<?xml version="1.0" standalone="no"?>
<!DOCTYPE svg PUBLIC "-//W3C//DTD SVG 1.1//EN" "http://www.w3.org/Graphics/SVG/1.1/DTD/svg11.dtd" >
<!--
2013-9-30: Created.
-->
<svg>
<metadata>
Created by iconfont
</metadata>
<defs>

<font id="iconfont" horiz-adv-x="1024" >
  <font-face
    font-family="iconfont"
    font-weight="500"
    font-stretch="normal"
    units-per-em="1024"
    ascent="896"
    descent="-128"
  />
    <missing-glyph />
    
    <glyph glyph-name="danxuanxuanzhong" unicode="&#58925;" d="M512-128C229.230208-128 0 101.230208 0 384 0 666.769792 229.230208 896 512 896 794.769792 896 1024 666.769792 1024 384 1024 101.230208 794.769792-128 512-128ZM512-64C759.423565-64 960 136.576435 960 384 960 631.423568 759.423565 832 512 832 264.576432 832 64 631.423568 64 384 64 136.576435 264.576432-64 512-64ZM512 64C688.731117 64 832 207.268883 832 384 832 560.73112 688.731117 704 512 704 335.26888 704 192 560.73112 192 384 192 207.268883 335.26888 64 512 64Z"  horiz-adv-x="1024" />

    
    <glyph glyph-name="iconcheckbox1" unicode="&#58918;" d="M731.682351 835.810153l-444.288852 0c-122.68725 0-222.144426-99.451036-222.144426-222.144426l0-444.288852c0-122.67497 99.457176-222.156706 222.144426-222.156706l444.288852 0c122.68111 0 222.144426 99.482759 222.144426 222.156706l0 444.288852C953.826777 736.359117 854.363462 835.810153 731.682351 835.810153zM532.137643 277.314189l0.002047-0.002047-77.109192-76.252685-77.109192 76.252685 0.001023 0.001023L255.639285 398.242376l77.116355 76.258825 122.275881-120.92921L686.358073 582.343347l77.109192-76.258825L532.137643 277.314189z"  horiz-adv-x="1024" />

    
    <glyph glyph-name="plus-shortanswer" unicode="&#59177;" d="M921.6 896h-819.2c-56.32 0-102.4-46.080-102.4-102.4v-819.2c0-56.32 46.080-102.4 102.4-102.4h819.2c56.32 0 102.4 46.080 102.4 102.4v819.2c0 56.32-46.080 102.4-102.4 102.4zM972.8-25.6c0-28.237-22.963-51.2-51.2-51.2l-819.2 0c-28.237 0-51.2 22.963-51.2 51.2v819.2c0 28.237 22.963 51.2 51.2 51.2h819.2c28.237 0 51.2-22.963 51.2-51.2l-0-819.2zM537.6 76.8c0-14.080-11.52-25.6-25.6-25.6s-25.6 11.52-25.6 25.6c0 14.080 11.52 25.6 25.6 25.6s25.6-11.52 25.6-25.6zM435.2 76.8c0-14.080-11.52-25.6-25.6-25.6l-281.6 0c-14.080 0-25.6 11.52-25.6 25.6s11.52 25.6 25.6 25.6h281.6c14.080-0 25.6-11.52 25.6-25.6zM921.6 76.8c0-14.080-11.52-25.6-25.6-25.6l-281.6 0c-14.080 0-25.6 11.52-25.6 25.6s11.52 25.6 25.6 25.6h281.6c14.080-0 25.6-11.52 25.6-25.6zM537.6 384c0-14.080-11.52-25.6-25.6-25.6s-25.6 11.52-25.6 25.6c0 14.080 11.52 25.6 25.6 25.6s25.6-11.52 25.6-25.6zM435.2 384c0-14.080-11.52-25.6-25.6-25.6h-281.6c-14.080 0-25.6 11.52-25.6 25.6 0 14.080 11.52 25.6 25.6 25.6h281.6c14.080 0 25.6-11.52 25.6-25.6zM921.6 384c0-14.080-11.52-25.6-25.6-25.6h-281.6c-14.080 0-25.6 11.52-25.6 25.6 0 14.080 11.52 25.6 25.6 25.6h281.6c14.080 0 25.6-11.52 25.6-25.6zM537.6 691.2c0-14.080-11.52-25.6-25.6-25.6s-25.6 11.52-25.6 25.6c0 14.080 11.52 25.6 25.6 25.6s25.6-11.52 25.6-25.6zM435.2 691.2c0-14.080-11.52-25.6-25.6-25.6h-281.6c-14.080 0-25.6 11.52-25.6 25.6 0 14.080 11.52 25.6 25.6 25.6h281.6c14.080 0 25.6-11.52 25.6-25.6zM921.6 691.2c0-14.080-11.52-25.6-25.6-25.6h-281.6c-14.080 0-25.6 11.52-25.6 25.6 0 14.080 11.52 25.6 25.6 25.6h281.6c14.080 0 25.6-11.52 25.6-25.6z"  horiz-adv-x="1024" />

    
    <glyph glyph-name="plus-judgement" unicode="&#59179;" d="M328.666 725.171c9.958 9.958 9.958 26.253 0 36.198s-26.253 9.958-36.198 0-9.958-26.253 0-36.198 26.24-9.958 36.198 0zM636.39 417.434c-9.958-9.958-9.958-26.253 0-36.198s26.253-9.958 36.198 0 9.958 26.253 0 36.198-26.24 9.958-36.198 0zM980.326 73.498c-9.958-9.958-9.958-26.253 0-36.198s26.253-9.958 36.198 0 9.958 26.253 0 36.198-26.24 9.958-36.198 0zM758.771 331.264l265.229 265.229-170.662 170.675-265.242-265.242-187.034 187.034c-9.958 9.958-26.253 9.958-36.198 0s-9.958-26.253 0-36.198l187.034-187.034-125.235-125.235-256 256-170.662-170.662 426.662-426.662 295.898 295.898 185.357-185.37c9.958-9.958 26.253-9.958 36.198 0 9.958 9.958 9.958 26.253 0 36.198l-185.344 185.37zM561.126 206.029l-134.464-134.464-354.253 354.266 98.253 98.266 219.802-219.802c9.997-9.997 23.104-15.002 36.198-15.002s26.202 5.005 36.198 15.002l390.464 390.464 98.253-98.266-390.451-390.464z"  horiz-adv-x="1025" />

    
    <glyph glyph-name="liebiao" unicode="&#58922;" d="M448 352H96c-19.2 0-32-12.8-32-32v-352c0-19.2 12.8-32 32-32h352c19.2 0 32 12.8 32 32V320c0 19.2-12.8 32-32 32z m0 480H96c-19.2 0-32-12.8-32-32v-352c0-19.2 12.8-32 32-32h352c19.2 0 32 12.8 32 32V800c0 19.2-12.8 32-32 32z m480 0H576c-19.2 0-32-12.8-32-32v-352c0-19.2 12.8-32 32-32h352c19.2 0 32 12.8 32 32V800c0 19.2-12.8 32-32 32z m0-480H576c-19.2 0-32-12.8-32-32v-352c0-19.2 12.8-32 32-32h352c19.2 0 32 12.8 32 32V320c0 19.2-12.8 32-32 32z"  horiz-adv-x="1024" />

    
    <glyph glyph-name="kecheng" unicode="&#58999;" d="M83.781818 819.2H232.727273v-558.545455H83.781818zM437.527273 823.854545h148.945454v-558.545454h-148.945454zM786.618182 819.2h148.945454v-558.545455h-148.945454zM251.345455 877.381818H72.145455C41.890909 877.381818 16.290909 851.781818 16.290909 821.527273v-875.054546c0-30.254545 25.6-55.854545 55.854546-55.854545h176.872727c30.254545 0 55.854545 25.6 55.854545 55.854545V821.527273c2.327273 30.254545-23.272727 55.854545-53.527272 55.854545zM160.581818-23.272727c-27.927273 0-53.527273 23.272727-53.527273 53.527272s23.272727 53.527273 53.527273 53.527273c27.927273 0 53.527273-23.272727 53.527273-53.527273s-23.272727-53.527273-53.527273-53.527272z m53.527273 356.072727H109.381818V781.963636h104.727273v-449.163636zM621.381818 877.381818h-221.090909c-30.254545 0-55.854545-25.6-55.854545-55.854545v-875.054546c0-30.254545 25.6-55.854545 55.854545-55.854545h221.090909c30.254545 0 55.854545 25.6 55.854546 55.854545V821.527273c0 30.254545-25.6 55.854545-55.854546 55.854545zM512-39.563636c-37.236364 0-69.818182 30.254545-69.818182 69.818181s30.254545 69.818182 69.818182 69.818182 69.818182-30.254545 69.818182-69.818182-32.581818-69.818182-69.818182-69.818181z m69.818182 372.363636h-139.636364V779.636364h139.636364v-446.836364zM951.854545 877.381818h-176.872727c-30.254545 0-55.854545-25.6-55.854545-55.854545v-875.054546c0-30.254545 25.6-55.854545 55.854545-55.854545h176.872727c30.254545 0 55.854545 25.6 55.854546 55.854545V821.527273c0 30.254545-25.6 55.854545-55.854546 55.854545zM861.090909-23.272727c-27.927273 0-53.527273 23.272727-53.527273 53.527272s23.272727 53.527273 53.527273 53.527273c27.927273 0 53.527273-23.272727 53.527273-53.527273s-23.272727-53.527273-53.527273-53.527272z m53.527273 356.072727h-104.727273V781.963636h104.727273v-449.163636zM251.345455 893.672727H72.145455C32.581818 893.672727 0 861.090909 0 821.527273v-875.054546c0-39.563636 32.581818-72.145455 72.145455-72.145454h176.872727c39.563636 0 72.145455 32.581818 72.145454 72.145454V821.527273c2.327273 39.563636-30.254545 72.145455-69.818181 72.145454z m37.236363-947.2c0-20.945455-16.290909-37.236364-37.236363-37.236363H72.145455c-20.945455 0-37.236364 16.290909-37.236364 37.236363V821.527273c0 20.945455 16.290909 37.236364 37.236364 37.236363h176.872727c20.945455 0 37.236364-16.290909 37.236363-37.236363v-875.054546zM160.581818 100.072727c-39.563636 0-69.818182-30.254545-69.818182-69.818182s30.254545-69.818182 69.818182-69.818181 69.818182 30.254545 69.818182 69.818181c0 37.236364-30.254545 69.818182-69.818182 69.818182z m0-104.727272c-18.618182 0-34.909091 16.290909-34.909091 34.90909s16.290909 34.909091 34.909091 34.909091 34.909091-16.290909 34.909091-34.909091c2.327273-18.618182-13.963636-34.909091-34.909091-34.90909zM214.109091 800.581818H109.381818c-9.309091 0-16.290909-6.981818-16.290909-16.290909v-449.163636c0-9.309091 6.981818-16.290909 16.290909-16.290909h104.727273c9.309091 0 16.290909 6.981818 16.290909 16.290909V781.963636c0 9.309091-6.981818 18.618182-16.290909 18.618182z m-16.290909-449.163636h-69.818182V765.672727h69.818182v-414.254545zM861.090909 100.072727c-39.563636 0-69.818182-30.254545-69.818182-69.818182s30.254545-69.818182 69.818182-69.818181 69.818182 30.254545 69.818182 69.818181c0 37.236364-30.254545 69.818182-69.818182 69.818182z m0-104.727272c-18.618182 0-34.909091 16.290909-34.909091 34.90909s16.290909 34.909091 34.909091 34.909091 34.909091-16.290909 34.909091-34.909091c2.327273-18.618182-13.963636-34.909091-34.909091-34.90909zM914.618182 800.581818h-104.727273c-9.309091 0-16.290909-6.981818-16.290909-16.290909v-449.163636c0-9.309091 6.981818-16.290909 16.290909-16.290909h104.727273c9.309091 0 16.290909 6.981818 16.290909 16.290909V781.963636c0 9.309091-6.981818 18.618182-16.290909 18.618182z m-16.290909-449.163636h-69.818182V765.672727h69.818182v-414.254545zM512 116.363636c-48.872727 0-86.109091-39.563636-86.109091-86.109091 0-48.872727 39.563636-86.109091 86.109091-86.10909 48.872727 0 86.109091 39.563636 86.109091 86.10909s-37.236364 86.109091-86.109091 86.109091z m0-139.636363c-27.927273 0-51.2 23.272727-51.2 51.2 0 27.927273 23.272727 51.2 51.2 51.2s51.2-23.272727 51.2-51.2c0-27.927273-23.272727-51.2-51.2-51.2zM951.854545 893.672727h-176.872727c-39.563636 0-72.145455-32.581818-72.145454-72.145454v-875.054546c0-39.563636 32.581818-72.145455 72.145454-72.145454h176.872727c39.563636 0 72.145455 32.581818 72.145455 72.145454V821.527273C1024 861.090909 991.418182 893.672727 951.854545 893.672727z m37.236364-947.2c0-20.945455-16.290909-37.236364-37.236364-37.236363h-176.872727c-20.945455 0-37.236364 16.290909-37.236363 37.236363V821.527273c0 20.945455 16.290909 37.236364 37.236363 37.236363h176.872727c20.945455 0 37.236364-16.290909 37.236364-37.236363v-875.054546zM621.381818 893.672727h-221.090909c-39.563636 0-72.145455-32.581818-72.145454-72.145454v-875.054546c0-39.563636 32.581818-72.145455 72.145454-72.145454h221.090909c39.563636 0 72.145455 32.581818 72.145455 72.145454V821.527273c2.327273 39.563636-32.581818 72.145455-72.145455 72.145454z m39.563637-947.2c0-20.945455-16.290909-37.236364-37.236364-37.236363h-221.090909c-20.945455 0-37.236364 16.290909-37.236364 37.236363V821.527273c0 20.945455 16.290909 37.236364 37.236364 37.236363h221.090909c20.945455 0 37.236364-16.290909 37.236364-37.236363v-875.054546zM581.818182 798.254545h-139.636364c-9.309091 0-16.290909-6.981818-16.290909-16.290909v-449.163636c0-9.309091 6.981818-16.290909 16.290909-16.290909h139.636364c9.309091 0 16.290909 6.981818 16.290909 16.290909V779.636364c0 9.309091-6.981818 18.618182-16.290909 18.618181z m-18.618182-449.163636h-104.727273V763.345455h104.727273v-414.254546zM69.818182 276.945455c-6.981818 0-13.963636-6.981818-13.963637-13.963637v-118.690909c0-6.981818 6.981818-13.963636 13.963637-13.963636s13.963636 6.981818 13.963636 13.963636v118.690909c0 6.981818-6.981818 13.963636-13.963636 13.963637zM69.818182 97.745455m-13.963637 0a13.963636 13.963636 0 1 1 27.927273 0 13.963636 13.963636 0 1 1-27.927273 0Z"  horiz-adv-x="1024" />

    
    <glyph glyph-name="liebiao1" unicode="&#58976;" d="M255.3 758.7c-59 0-107-48-107-107s48-107 107-107 107 48 107 107-48 107-107 107z m0-167.9c-33.6 0-61 27.4-61 61s27.4 61 61 61 61-27.4 61-61-27.4-61-61-61zM427.3 674.8h448.4v-46H427.3zM255.3 478.4c-59 0-107-48-107-107s48-107 107-107 107 48 107 107-48 107-107 107z m0-168c-33.6 0-61 27.4-61 61s27.4 61 61 61 61-27.4 61-61-27.4-61-61-61zM427.3 394.4h448.4v-46H427.3zM255.3 223.2c-59 0-107-48-107-107s48-107 107-107 107 48 107 107-48 107-107 107z m0-167.9c-33.6 0-61 27.4-61 61s27.4 61 61 61 61-27.4 61-61-27.4-61-61-61zM427.3 139.2h448.4v-46H427.3z"  horiz-adv-x="1024" />

    
    <glyph glyph-name="wode" unicode="&#58899;" d="M524.6 739.4c-235.9 0-427.2-191.2-427.2-427.2S288.6-115 524.6-115s427.2 191.2 427.2 427.2-191.3 427.2-427.2 427.2zM701.2 34.2c-3.4 0-6.9 1.4-9.4 4-5 5.2-4.8 13.5 0.4 18.4 19.8 18.9 37.8 39.9 53.6 62.4 5.8 8.3 11.4 16.9 16.5 25.6 3.7 6.2 11.7 8.2 17.9 4.5 6.2-3.7 8.2-11.7 4.5-17.9-5.5-9.2-11.4-18.4-17.5-27.1-16.7-23.9-35.8-46.1-56.9-66.3-2.6-2.4-5.8-3.6-9.1-3.6z m100.2 146.4c-1.7 0-3.3 0.3-5 1-6.7 2.8-9.9 10.4-7.1 17 4.6 11.2 8.8 22.8 12.4 34.5 2.1 6.9 9.4 10.7 16.3 8.6 6.9-2.1 10.7-9.4 8.6-16.3-3.9-12.3-8.3-24.6-13.2-36.6-2.1-5.2-6.9-8.2-12-8.2zM709.4 790.4a13.1 2.5 90 1 1 5 0 13.1 2.5 90 1 1-5 0ZM698.326635 786.320981a2.5 13.1 30 1 1 4.330127 2.5 2.5 13.1 30 1 1-4.330127-2.5ZM690.863321 777.251865a2.5 13.1 60 1 1 2.5 4.330127 2.5 13.1 60 1 1-2.5-4.330127ZM675.8 768.1a13.1 2.5 0 1 1 26.2 0 13.1 2.5 0 1 1-26.2 0ZM680.36029 750.16051a13.1 2.5 30 1 1 22.689865 13.1 13.1 2.5 30 1 1-22.689865-13.1ZM693.235297 736.886534a13.1 2.5 60 1 1 13.1 22.689865 13.1 2.5 60 1 1-13.1-22.689865ZM708.6 745a13.1 2.5 90 1 1 5 0 13.1 2.5 90 1 1-5 0ZM720.314528 746.624167a2.5 13.1 30 1 1 4.330127 2.5 2.5 13.1 30 1 1-4.330127-2.5ZM729.683306 753.926453a2.5 13.1 60 1 1 2.5 4.330127 2.5 13.1 60 1 1-2.5-4.330127ZM721.1 767.3a13.1 2.5 0 1 1 26.2 0 13.1 2.5 0 1 1-26.2 0ZM720.038708 772.167053a13.1 2.5 30 1 1 22.689866 13.1 13.1 2.5 30 1 1-22.689866-13.1ZM716.697311 775.743122a13.1 2.5 60 1 1 13.1 22.689866 13.1 2.5 60 1 1-13.1-22.689866ZM795.5 867.8m-15.9 0a15.9 15.9 0 1 1 31.8 0 15.9 15.9 0 1 1-31.8 0ZM561.9 802.2c-2.5 0-4.4 2-4.4 4.4V855.3c0 2.5 2 4.4 4.4 4.4 2.5 0 4.4-2 4.4-4.4v-48.8c0.1-2.4-1.9-4.3-4.4-4.3zM586.3 826.5h-48.8c-2.5 0-4.4 2-4.4 4.4 0 2.5 2 4.4 4.4 4.4h48.8c2.5 0 4.4-2 4.4-4.4 0-2.4-1.9-4.4-4.4-4.4zM942.5 656.1c-6.1 2.6-12.6 1.1-14.6-3.3l-37.6-87.3c-1.9-4.5 1.5-10.2 7.6-12.9 6.1-2.6 12.6-1.1 14.6 3.3l37.6 87.3c1.9 4.5-1.5 10.2-7.6 12.9zM868.4 626.7c-2.6-6.1-1.1-12.6 3.3-14.6l87.3-37.6c4.5-1.9 10.2 1.5 12.9 7.6 2.6 6.1 1.1 12.6-3.3 14.6l-87.3 37.6c-4.5 1.9-10.3-1.5-12.9-7.6zM879.7 722.5c-22.3 0-40.5 18-40.5 40s18.2 40 40.5 40 40.5-18 40.5-40-18.2-40-40.5-40z m0 69.6c-16.4 0-29.8-13.2-29.8-29.4s13.4-29.4 29.8-29.4 29.8 13.2 29.8 29.4-13.4 29.4-29.8 29.4zM468.3-128c-59.4 0-117.1 11.6-171.4 34.6-52.4 22.2-99.5 53.9-139.9 94.3-40.4 40.4-72.1 87.5-94.3 139.9-23 54.4-34.7 112-34.7 171.5s11.6 117.1 34.6 171.3c22.2 52.5 53.9 99.5 94.3 139.9s87.5 72.1 139.9 94.3c54.3 23 111.9 34.6 171.4 34.6s117.1-11.6 171.4-34.6c52.4-22.2 99.5-53.9 139.9-94.3 40.4-40.4 72.1-87.5 94.3-139.9 23-54.3 34.6-111.9 34.6-171.4s-11.6-117.1-34.6-171.4c-22.2-52.4-53.9-99.5-94.3-139.9-40.4-40.4-87.5-72.1-139.9-94.3-54.2-23-111.9-34.6-171.3-34.6z m0 854.4c-228.4 0-414.2-185.8-414.2-414.1s185.8-414.1 414.1-414.1S882.3 84 882.3 312.3c0.1 228.3-185.7 414.1-414 414.1zM561.9 452.6c0-25.9 21-46.9 46.9-46.9s46.9 21 46.9 46.9-21 46.9-46.9 46.9-46.9-21-46.9-46.9zM608.9 392.6c-33.1 0-60 26.9-60 60s26.9 60 60 60 60-26.9 60-60c-0.1-33.1-27-60-60-60z m0 93.8c-18.7 0-33.9-15.2-33.9-33.9s15.2-33.9 33.9-33.9 33.9 15.2 33.9 33.9c-0.1 18.8-15.3 33.9-33.9 33.9zM280.8 452.6c0-25.9 21-46.9 46.9-46.9s46.9 21 46.9 46.9-21 46.9-46.9 46.9-46.9-21-46.9-46.9zM327.7 392.6c-33.1 0-60 26.9-60 60s26.9 60 60 60 60-26.9 60-60-27-60-60-60z m0 93.8c-18.7 0-33.9-15.2-33.9-33.9s15.2-33.9 33.9-33.9 33.9 15.2 33.9 33.9c0 18.8-15.2 33.9-33.9 33.9zM468.3 125c90.5 0 166 64.3 183.4 149.6 4 19.4-10.9 37.6-30.7 37.6H315.6c-19.8 0-34.7-18.2-30.7-37.6C302.2 189.2 377.8 125 468.3 125zM468.3 111.9c-23.7 0-46.9 4.1-68.9 12.2-21.3 7.8-41 19.1-58.6 33.6-35.3 29.1-59.7 69.7-68.7 114.3-2.7 13.1 0.7 26.6 9.1 36.9 8.5 10.4 21 16.3 34.4 16.3H621c13.4 0 25.9-6 34.4-16.3s11.8-23.8 9.1-36.9c-9.1-44.6-33.5-85.1-68.8-114.3-17.5-14.5-37.3-25.8-58.6-33.6-22-8.1-45.2-12.2-68.8-12.2zM315.6 299.1c-5.5 0-10.7-2.5-14.1-6.7-3.5-4.3-4.9-9.8-3.8-15.2C314.1 196.5 385.8 138 468.3 138c82.4 0 154.2 58.5 170.6 139.2 1.1 5.4-0.3 10.9-3.8 15.2s-8.7 6.7-14.2 6.7H315.6z"  horiz-adv-x="1024" />

    
    <glyph glyph-name="wulumuqishigongandashujuguanlipingtai-ico-" unicode="&#59375;" d="M832 695.04a32 32 0 0 1-32-32V339.20000000000005l-131.84 23.68-55.04-55.04 213.76-38.4a32.64 32.64 0 0 1 26.24 7.04 32 32 0 0 1 11.52 24.32V663.04a32 32 0 0 1-32.64 32zM798.72 663.04a32 32 0 0 0 9.6 22.4l-636.16-635.52a32 32 0 1 1 45.44-45.44l581.12 581.12zM227.2 104.32000000000005V376.96000000000004L384 349.44000000000005l55.04 55.04L200.96 448a33.28 33.28 0 0 1-26.24-7.04 32 32 0 0 1-11.52-24.32v-388.48a32 32 0 0 0 9.6 22.4z"  horiz-adv-x="1024" />

    
    <glyph glyph-name="shanchu" unicode="&#58898;" d="M519.620465 896c-103.924093 0-188.511256-82.467721-192.083349-185.820279H85.015814A48.91386 48.91386 0 0 1 36.101953 661.313488a48.91386 48.91386 0 0 1 48.913861-48.866232h54.010046V64.654884c0-102.852465 69.822512-186.844279 155.909954-186.844279h439.200744c86.087442 0 155.909953 83.491721 155.909954 186.844279V611.899535h48.91386a48.91386 48.91386 0 0 1 48.913861 48.890046 48.91386 48.91386 0 0 1-48.913861 48.866233h-227.756651A191.559442 191.559442 0 0 1 519.620465 896z m-107.234232-177.080558c3.548279 49.771163 46.627721 88.540279 99.851907 88.540279 53.224186 0 96.327442-38.745302 99.351813-88.540279h-199.20372z m-111.997024-752.044651c-30.981953 0-65.083535 39.15014-65.083535 95.041488V608.256h575.488v-546.839814c0-55.915163-34.077767-95.041488-65.059721-95.041488H300.389209v0.500093zM368.116093 99.185116c24.361674 0 44.27014 21.670698 44.27014 48.818605v278.623256c0 27.147907-19.908465 48.818605-44.27014 48.818604-24.33786 0-44.27014-21.670698-44.27014-48.818604v-278.623256c0-27.147907 19.360744-48.818605 44.293954-48.818605z m154.933581 0c24.361674 0 44.293953 21.670698 44.293954 48.818605v278.623256c0 27.147907-19.932279 48.818605-44.293954 48.818604-24.33786 0-44.27014-21.670698-44.270139-48.818604v-278.623256c0-27.147907 19.932279-48.818605 44.293953-48.818605z m132.810419 0c24.33786 0 44.27014 21.670698 44.27014 48.818605v278.623256c0 27.147907-19.932279 48.818605-44.27014 48.818604s-44.27014-21.670698-44.27014-48.818604v-278.623256c0-27.147907 19.360744-48.818605 44.27014-48.818605z"  horiz-adv-x="1024" />

    
    <glyph glyph-name="baogao" unicode="&#58985;" d="M194.9 49.3h69v66.8H153c-14.4 0-26.5 10-29.8 23.4V121c-0.1-39.5 32.1-71.7 71.7-71.7zM868.9 49.3c17.8 0 32.3 14.5 32.3 32.3v95.3c-10.2-23.3-33.4-39.7-60.6-39.7H381.7c-27.1 0-50.3 16.3-60.6 39.7v-127.6h547.8zM508.2 717.6h8.9c15.8 0 28.6 12.8 28.6 28.6s-12.8 28.6-28.6 28.6h-8.9c-15.8 0-28.6-12.8-28.6-28.6s12.8-28.6 28.6-28.6zM868.9 774.9H595.6c-15.8 0-28.6-12.8-28.6-28.6s12.8-28.6 28.6-28.6h273.3c17.8 0 32.3-14.5 32.3-32.3v-603.8c0-17.8-14.5-32.3-32.3-32.3H321.1V685.4c0 17.8 14.5 32.3 32.3 32.3h73.4c15.8 0 28.6 12.8 28.6 28.6s-12.8 28.6-28.6 28.6h-73.4c-49.4 0-89.5-40.2-89.5-89.5V49.3h-69c-39.6 0-71.7 32.2-71.7 71.7V351.2c0 39.6 32.2 71.7 71.7 71.7h11.7c15.8 0 28.6 12.8 28.6 28.6s-12.8 28.6-28.6 28.6h-11.7c-71.1 0-129-57.9-129-129V121c0-71.1 57.9-129 129-129h674c49.4 0 89.5 40.2 89.5 89.5V685.4c0.1 49.4-40.1 89.5-89.5 89.5zM446.3 548.2c0-15.8 12.8-28.6 28.6-28.6h311.6c15.8 0 28.6 12.8 28.6 28.6s-12.8 28.6-28.6 28.6H475c-15.8 0.1-28.7-12.8-28.7-28.6zM815.2 381.8c0 15.8-12.8 28.6-28.6 28.6H475c-15.8 0-28.6-12.8-28.6-28.6s12.8-28.6 28.6-28.6h311.6c15.8 0 28.6 12.8 28.6 28.6zM475 267.4c-15.8 0-28.6-12.8-28.6-28.6s12.8-28.6 28.6-28.6h206.8c15.8 0 28.6 12.8 28.6 28.6s-12.8 28.6-28.6 28.6H475z"  horiz-adv-x="1024" />

    
    <glyph glyph-name="dianpu" unicode="&#58986;" d="M132 552.1c-3.6-9.8-5.4-20-5.4-30.3 0-1.2 0-2.5 0.1-3.6v-2.3l0.3-2.1c4.4-50.2 51.7-89.4 107.5-89.4 55.9 0 103.1 39.3 107.5 89.4 1.4 15.9 14.7 28.1 30.7 28.1h0.9c16 0 29.3-12.2 30.7-28.1 4.4-50.2 51.7-89.4 107.5-89.4 55.9 0 103.1 39.3 107.5 89.4 1.4 15.9 14.7 28.1 30.7 28.1h0.9c16 0 29.3-12.2 30.7-28.1 4.4-50.2 51.7-89.4 107.5-89.4s103.1 39.3 107.5 89.4c0.1 1.3 0.3 2.5 0.6 3.8-0.2 1.3-0.2 2.5-0.2 3.8v0.9c0 8.9-1.5 18.2-4.5 27.1-0.5 1.6-0.9 3.2-1.2 4.8l-0.8 5-756.4 3.3-0.7-4.7c-0.2-1.9-0.7-3.9-1.4-5.7zM960 515.8l-1.3 8c-0.2 14.4-2.5 28.7-6.8 42.6L914.8 797.8c-2.4 14.9-15.3 25.9-30.4 25.9H525.3c-17 0-30.8-13.8-30.8-30.8s13.8-30.8 30.8-30.8h332.9l32.5-202.9 0.8-5c0.3-1.6 0.7-3.3 1.2-4.8 3-9 4.5-18.3 4.5-27.1v-0.9c0-1.3 0.1-2.6 0.2-3.8-0.3-1.2-0.5-2.5-0.6-3.8-4.4-50.2-51.7-89.4-107.5-89.4s-103.1 39.3-107.5 89.4c-1.4 15.9-14.7 28.1-30.7 28.1h-0.9c-16 0-29.3-12.2-30.7-28.1-4.4-50.2-51.7-89.4-107.5-89.4-55.9 0-103.1 39.3-107.5 89.4-1.4 15.9-14.7 28.1-30.7 28.1h-0.9c-16 0-29.3-12.2-30.7-28.1-4.4-50.2-51.7-89.4-107.5-89.4-55.9 0-103.1 39.3-107.5 89.4-0.1 0.7-0.1 1.4-0.3 2.1v2.3c0 1.2-0.1 2.4-0.1 3.6 0 10.4 1.8 20.6 5.4 30.3 0.7 1.9 1.2 3.8 1.5 5.8l0.7 4.7 31.4 199.6h157c17 0 30.8 13.8 30.8 30.8s-13.8 30.8-30.8 30.8H139.4c-15.2 0-28.1-11-30.4-26L73.1 570.3c-5.4-15.7-8.1-32-8.1-48.5v-2.9l-0.5-3.2c-0.9-5.8-0.1-11.6 2.2-16.9 11.9-77.1 83.7-136.1 167.8-136.1 56.7 0 107.8 26.8 138.7 67.9 30.9-41.1 82-67.9 138.7-67.9s107.8 26.8 138.7 67.9c30.9-41.1 82-67.9 138.7-67.9 83.2 0 154.3 57.8 167.4 133.6 3.1 5.9 4.3 12.7 3.3 19.5zM417.5 762.2h8.8c17 0 30.8 13.8 30.8 30.8s-13.8 30.8-30.8 30.8h-8.8c-17 0-30.8-13.8-30.8-30.8s13.7-30.8 30.8-30.8zM229.1 7.3h566.4c19 0 34.5 15.5 34.5 34.5V67H194.6v-25.2c0-19 15.5-34.5 34.5-34.5zM860.8 328.8c-17 0-30.8-13.8-30.8-30.8v-256.2c0-19-15.5-34.5-34.5-34.5H229.1c-19 0-34.5 15.5-34.5 34.5v72.3h557.9c17 0 30.8 13.8 30.8 30.8s-13.8 30.8-30.8 30.8H194.6V298c0 17-13.8 30.8-30.8 30.8S133 315 133 298v-256.2c0-53 43.1-96.1 96.1-96.1h566.4c53 0 96.1 43.1 96.1 96.1V298c0 17-13.8 30.8-30.8 30.8z"  horiz-adv-x="1024" />

    
    <glyph glyph-name="dingwei" unicode="&#58987;" d="M787.9 500.6c0 35.1-6.6 68.6-18.5 99.5-12.4-110.6-40-191.7-88.5-277.1-42.2-87.3-158.5-227.3-200.9-283.5 8.8-11.7 17.2-22.7 24.9-32.6 95.2 117.4 283 373.7 283 493.7zM510.7 832.1c-15.2 0-30.4-1-45.3-3.1-14.9-2-25.3-15.8-23.3-30.7 2-14.9 15.8-25.4 30.7-23.3 12.5 1.7 25.2 2.6 37.9 2.6 117.8 0 218.5-73.9 258.6-177.6 11.9-30.9 18.5-64.4 18.5-99.5 0-119.9-187.8-376.3-283-493.7-7.7 9.9-16.1 20.9-24.9 32.6-95.6 127.3-246.3 351.2-246.3 461.1 0 80.6 35 157 96 209.8 11.4 9.8 12.6 27 2.8 38.4-9.8 11.4-27 12.6-38.4 2.8-73-63.1-114.9-154.6-114.9-251 0-175.7 291.6-538.8 304-554.2 5.1-6.3 12.8-10 20.9-10.1h0.3c8 0 15.7 3.5 20.8 9.7 12.9 15.4 317.1 378.6 317.1 554.6 0.1 182.9-148.6 331.6-331.5 331.6zM378.2 747.4c4 0 8 0.9 11.9 2.7 3.6 1.7 7.2 3.4 10.9 5 13.8 6 20.2 22 14.2 35.8-6 13.8-22 20.2-35.8 14.2-4.4-1.9-8.8-3.9-13.1-6-13.5-6.6-19.2-22.8-12.6-36.4 4.7-9.7 14.4-15.3 24.5-15.3zM471.8 387.1c12.1-4.8 25.2-7.6 39-7.6 58.1 0 105.3 47.2 105.3 105.3 0 20-5.7 38.7-15.5 54.7-3.3-26-18.2-59.6-43.5-90.8-26.7-32.9-59.7-54.2-85.3-61.6zM510.7 325.1c88.1 0 159.8 71.7 159.8 159.8s-71.7 159.8-159.8 159.8S351 573 351 484.9s71.6-159.8 159.7-159.8z m0 265.1c38 0 71.3-20.3 89.9-50.7 9.7-16 15.5-34.6 15.5-54.7 0-58.1-47.2-105.3-105.3-105.3-13.8 0-26.9 2.7-39 7.6-38.8 15.5-66.4 53.5-66.4 97.8 0 58 47.3 105.3 105.3 105.3z"  horiz-adv-x="1024" />

    
    <glyph glyph-name="guanli" unicode="&#58988;" d="M860.6 577l-109.2 49.8-341.9-155.4 103.1-47.8zM81.1 559.6l419-194.1c3.9-1.8 8-2.7 12.2-2.7 4 0 8 0.8 11.7 2.5L943 550c10.4 4.6 17.2 14.9 17.3 26.3 0.1 11.4-6.6 21.8-16.9 26.6L515.1 798.5c-7.6 3.5-16.4 3.5-24 0l-66.4-30.2c-14.6-6.6-21-23.8-14.4-38.4 6.6-14.6 23.8-21 38.4-14.4l54.4 24.7 248.4-113.5L860.6 577l-348-153.4-103.1 47.8-246.7 114.3 104.8 47.7c14.6 6.6 21 23.8 14.4 38.4-6.6 14.6-23.8 21-38.4 14.4L81.3 612.3c-10.3-4.7-17-15-17-26.3s6.6-21.6 16.8-26.4zM343.8 670.8c4 0 8.1 0.8 12 2.6l9.9 4.5c14.6 6.6 21 23.8 14.4 38.4-6.6 14.6-23.8 21-38.4 14.4l-9.9-4.5c-14.6-6.6-21-23.8-14.4-38.4 4.8-10.7 15.3-17 26.4-17zM919.3 382.4L512.6 196.2 105.9 391.6c-14.4 6.9-31.7 0.9-38.7-13.6-6.9-14.4-0.9-31.7 13.6-38.7l419-201.3c4-1.9 8.3-2.9 12.6-2.9 4.1 0 8.2 0.9 12.1 2.6l419 191.9c14.6 6.7 21 23.9 14.3 38.4-6.8 14.7-24 21.1-38.5 14.4zM919.3 210.6L512.6 24.3 105.9 219.8c-14.4 6.9-31.7 0.9-38.7-13.6-6.9-14.4-0.9-31.7 13.6-38.7l419-201.3c4-1.9 8.3-2.9 12.6-2.9 4.1 0 8.2 0.9 12.1 2.6l419 191.9c14.6 6.7 21 23.9 14.3 38.4-6.8 14.6-24 21-38.5 14.4z"  horiz-adv-x="1024" />

    
    <glyph glyph-name="jinbi" unicode="&#58989;" d="M899.9 384c0 59.2-13.4 115.3-37.2 165.5 15.2-115.5-25.9-269-137.7-380.8C615.5 59.2 463.6 20 349.1 32.5c49.6-23.1 104.9-36.1 163.2-36.1 213.7 0 387.6 173.9 387.6 387.6zM512.2 831.8c-64.9 0-127.5-13.6-186.1-40.4-15.1-6.9-21.7-24.7-14.8-39.8 6.9-15.1 24.7-21.7 39.8-14.8 50.7 23.2 104.9 34.9 161.1 34.9 154.6 0 288.2-91 350.4-222.1 23.8-50.2 37.2-106.3 37.2-165.5 0-213.7-173.9-387.6-387.6-387.6-58.3 0-113.5 13-163.2 36.1-132.4 61.7-224.5 196-224.5 351.5 0 88.4 30.5 174.9 86 243.5 10.4 12.9 8.4 31.8-4.5 42.3-12.9 10.4-31.8 8.4-42.3-4.5C99.8 586 64.5 486.1 64.5 384c0-246.9 200.9-447.8 447.8-447.8S960 137.1 960 384 759.1 831.8 512.2 831.8zM249 678.2c6.7 0 13.4 2.2 18.9 6.7 3.4 2.8 6.9 5.5 10.4 8.1 13.2 10 15.8 28.9 5.8 42.1-10 13.2-28.9 15.8-42.1 5.8-4-3.1-8-6.2-12-9.4-12.9-10.5-14.8-29.4-4.4-42.3 6-7.2 14.6-11 23.4-11zM457.965 250.842L638.63 431.506l47.447-47.446-180.664-180.664zM526.7 585.9c11.7 11.7 11.7 30.8 0 42.5s-30.8 11.7-42.5 0L261 405.3c-5.6-5.6-8.8-13.3-8.8-21.3s3.2-15.6 8.8-21.3l223.2-223.2c5.9-5.9 13.6-8.8 21.3-8.8 7.7 0 15.4 2.9 21.3 8.8L750 362.7c11.7 11.7 11.7 30.8 0 42.5L594.7 560.5c-11.7 11.7-30.8 11.7-42.5 0s-11.7-30.8 0-42.5l86.5-86.5 47.5-47.5-180.8-180.6-47.4 47.4L324.8 384l201.9 201.9z"  horiz-adv-x="1024" />

    
    <glyph glyph-name="gouwuche" unicode="&#58990;" d="M437.6 72.7c3.8-1 7.7-1.6 11.8-1.6 24.4 0 44.2 19.8 44.2 44.2 0 3.5-0.5 7-1.3 10.3-3.1-10.1-9.7-21.2-19.7-31.1-11-11.1-23.6-18.8-35-21.8zM728.5 72.8c3.9-1.1 8.1-1.8 12.3-1.8 24.4 0 44.2 19.8 44.2 44.2 0 4.3-0.6 8.4-1.8 12.3-2.8-10.7-9.7-22.5-20.3-33.1-10.8-10.9-23.2-18.4-34.4-21.6zM740.9 210.5c-52.5 0-95.2-42.7-95.2-95.2s42.7-95.2 95.2-95.2 95.2 42.7 95.2 95.2-42.7 95.2-95.2 95.2z m0-51.1c20.1 0 37.1-13.5 42.4-31.9 1.1-3.9 1.8-8 1.8-12.3 0-24.4-19.8-44.2-44.2-44.2-4.3 0-8.4 0.6-12.3 1.8-18.4 5.4-31.8 22.3-31.8 42.4-0.1 24.4 19.7 44.2 44.1 44.2zM449.4 210.5c-52.5 0-95.2-42.7-95.2-95.2s42.7-95.2 95.2-95.2 95.2 42.7 95.2 95.2c0.1 52.5-42.7 95.2-95.2 95.2z m0-51.1c20.8 0 38.3-14.5 42.9-33.9 0.8-3.3 1.3-6.7 1.3-10.3 0-24.4-19.8-44.2-44.2-44.2-4.1 0-8 0.6-11.8 1.6-18.7 5.2-32.4 22.3-32.4 42.6 0 24.4 19.9 44.2 44.2 44.2zM837.1 321.5l72.2 279.8-0.5 26.2-0.1-25.5-110.3 0.4c-13.9-44.6-41.3-133.1-57.5-189.3-11.2-38.7-20.9-90.9-43.8-113.6h111.7c13.4 0 25 9 28.3 22zM547.4 603.2H559.2c14.1 0 25.5 11.4 25.5 25.4 0 14.1-11.3 25.6-25.4 25.6h-11.7-0.1c-14.1 0-25.5-11.4-25.5-25.4-0.1-14.1 11.3-25.6 25.4-25.6zM949.5 633c-9.8 12.6-24.6 19.9-40.6 20.1l-260.2 0.9h-0.1c-14.1 0-25.5-11.4-25.5-25.4 0-14.1 11.3-25.6 25.4-25.6l150-0.5 110.3-0.4 0.1 25.5 0.5-26.2-72.2-279.8c-3.3-13-14.9-22-28.3-22H393.3c-13.2 0-24.6 8.7-28.1 21.3L320 603.3l138.1 0.3c14.1 0 25.5 11.5 25.5 25.6 0 14.1-11.4 25.5-25.5 25.5l-146.2-0.3-6.5 40.4c-0.1 0.7-0.3 1.4-0.4 2.1-6.1 24.6-28 41.8-53.3 41.8h-162c-14.1 0-25.5-11.4-25.5-25.5s11.4-25.5 25.5-25.5h162c1.6 0 3-1 3.6-2.4L315 311.6c0.1-0.7 0.2-1.4 0.4-2 8.8-36 40.9-61.1 77.9-61.1h415.5c36.8 0 68.8 24.9 77.7 60.5l72.2 279.8c4 15.4 0.6 31.5-9.2 44.2z"  horiz-adv-x="1024" />

    
    <glyph glyph-name="naozhong" unicode="&#58991;" d="M331.5 127.2c3.1-1.5 6-3.4 8.6-6 0.5-0.5 0.9-1.1 1.4-1.7 50.6-37.2 113.1-59.2 180.5-59.2 167.3 0 303.5 135 305.7 301.7-26.8-84.9-117-169.2-240.1-206.4C463.9 118.3 345 127.1 275.1 186c16.1-22 35.1-41.8 56.4-58.8zM301.4 663.2c-2.1-1.6-4.2-3.1-6.2-4.7-14-10.9-16.5-31-5.6-44.9 6.3-8.1 15.8-12.4 25.3-12.4 6.9 0 13.8 2.2 19.6 6.7 1.7 1.3 3.4 2.6 5.2 3.9 14.2 10.6 17.1 30.6 6.6 44.8s-30.7 17.2-44.9 6.6zM757.2 750.6c22.9 22.9 60.1 22.9 83 0s22.9-60.1 0-83c-12.5-12.5-12.5-32.8 0-45.3 6.3-6.3 14.4-9.4 22.6-9.4s16.4 3.1 22.6 9.4c47.8 47.8 47.8 125.7 0 173.5s-125.7 47.8-173.5 0c-12.5-12.5-12.5-32.8 0-45.3 12.5-12.4 32.8-12.4 45.3 0.1zM184.4 622.4c12.5 12.5 12.5 32.8 0 45.3-22.9 22.9-22.9 60.1 0 83s60.1 22.9 83 0c12.5-12.5 32.8-12.5 45.3 0s12.5 32.8 0 45.3c-47.8 47.8-125.7 47.8-173.5 0s-47.8-125.7 0-173.5c6.3-6.3 14.4-9.4 22.6-9.4 8.2-0.1 16.4 3 22.6 9.3zM777.5 99.2c70.4 67.4 114.4 162.1 114.4 267 0 204-165.9 369.9-369.9 369.9-40.8 0-81-6.6-119.4-19.7-16.7-5.7-25.7-23.9-20-40.6s23.9-25.7 40.6-20c31.7 10.8 64.9 16.3 98.7 16.3 168.6 0 305.8-137.2 305.8-305.8 0-1.4-0.1-2.7-0.1-4.1-2.1-166.8-138.4-301.8-305.6-301.8-67.5 0-129.9 22-180.5 59.2-0.5 0.5-0.8 1.2-1.4 1.7-2.6 2.6-5.5 4.5-8.6 6-21.3 17-40.3 36.8-56.4 58.8-37 50.6-59 112.9-59 180.3 0 60.5 17.6 119 51 169.1 9.8 14.7 5.8 34.6-8.9 44.4-14.7 9.8-34.6 5.8-44.4-8.9-40.4-60.7-61.7-131.4-61.7-204.6 0-106.5 45.3-202.6 117.6-270.1L167.4-6.1c-12.5-12.5-12.5-32.8 0-45.3 6.3-6.3 14.4-9.4 22.6-9.4 8.2 0 16.4 3.1 22.6 9.4l107.8 107.8c58-37.9 127.2-60 201.5-60 75.9 0 146.6 23 205.4 62.4l111.4-111.4c6.3-6.3 14.4-9.4 22.6-9.4s16.4 3.1 22.6 9.4c12.5 12.5 12.5 32.8 0 45.3L777.5 99.2zM511.9 574.8c-17.7 0-32-14.3-32-32v-216.5c0-17.7 14.3-32 32-32h164.4c17.7 0 32 14.3 32 32s-14.3 32-32 32H543.9V542.8c0 17.7-14.4 32-32 32z"  horiz-adv-x="1024" />

    
    <glyph glyph-name="jiangbei" unicode="&#58992;" d="M506.9 145.7c1.5 0 3 0.1 4.6 0.1 4.1 0 8.2-0.1 12.3-0.2V282.2h-16.9v-136.5zM585.3 80.3c25.5-17.4 49-44.5 56.8-84.9h98.3c-20.4 36.7-77 71.2-155.1 84.9zM922.2 831.8H757.7c-0.2 0-0.4-0.1-0.6-0.1-0.2 0-0.4 0.1-0.6 0.1h-229c-16.3 0-29.6-13.2-29.6-29.6s13.2-29.6 29.6-29.6h199.6l0.9-215.5c0-98.3-66.1-181.4-156.1-207.4-19-5.5-39-8.5-59.8-8.5-119 0-215.9 96.9-215.9 216l-0.9 215.3h48.5c16.3 0 29.6 13.2 29.6 29.6s-13.2 29.6-29.6 29.6H100.9c-16.3 0-29.6-13.2-29.6-29.6V761c0-66.3 33.3-127.3 89.1-163.2 5-3.2 10.5-4.7 16-4.7 9.7 0 19.2 4.8 24.9 13.5 8.8 13.7 4.9 32-8.8 40.9-38.8 25-62 67.4-62 113.5v11.6H236l0.9-215.5c0-126.7 86.2-233.7 203-265.4v-151.3c-11.8-1.7-23.5-3.7-34.9-6.3-15.9-3.6-25.9-19.5-22.3-35.4 3.6-15.9 19.5-25.9 35.4-22.3 29.6 6.7 61 10.1 93.3 10.1 26.3 0 50.9-2.3 73.8-6.4 78.2-13.7 134.8-48.2 155.1-84.9H282.2c10.2 19 29.8 37.1 57.1 52.1 14.3 7.9 19.5 25.9 11.6 40.2-7.9 14.3-25.9 19.5-40.2 11.6-61.7-34-95.7-81.4-95.7-133.5 0-16.3 13.2-29.6 29.6-29.6h533.5c16.3 0 29.6 13.2 29.6 29.6 0 85.9-94.3 155.9-224.9 174.9v151C700.3 322.9 787 430.1 787 557.3l-0.9 215.3h106.6V761c0-46.1-23.2-88.5-62-113.5-13.7-8.8-17.7-27.1-8.8-40.9 5.7-8.8 15.2-13.6 24.9-13.6 5.5 0 11 1.5 16 4.7 55.8 35.9 89.1 97 89.1 163.2V802.2c-0.1 16.3-13.4 29.6-29.7 29.6zM523.8 145.6c-4.1 0.1-8.2 0.2-12.3 0.2-1.5 0-3-0.1-4.6-0.1-2.6 0-5.2-0.1-7.8-0.2V282.2h24.7v-136.6zM727.9 557.2l-0.9 215.5h-92.3l0.9-215.5c0-84.1-19.5-168.1-63.9-207.4 90.1 26 156.2 109.1 156.2 207.4zM433.2 772.7h1.8c16.3 0 29.6 13.2 29.6 29.6S451.4 831.8 435 831.8h-1.8c-16.3 0-29.6-13.2-29.6-29.6s13.3-29.5 29.6-29.5z"  horiz-adv-x="1024" />

    
    <glyph glyph-name="niunai" unicode="&#58993;" d="M675.4 675.3h9.4v99.9h-75.7v-100.4c1.8 0.3 3.6 0.6 5.5 0.6h60.8zM776.5 25.9V425.8c0 15.8-4.7 31.1-13.7 44.1l-102 148.9h-45.4l86-133.7c11-17.1 31-37.1 31-57.5V26c0-12.2-5.4-23.5-13.9-33.1h25c18.2-0.1 33 14.8 33 33zM265.7 524.4c4.7-3 10-4.5 15.3-4.5 9.3 0 18.4 4.6 23.8 13l2.3 3.7c8.4 13.1 4.6 30.6-8.5 39.1-13.1 8.4-30.6 4.6-39.1-8.5l-2.3-3.7c-8.5-13.2-4.7-30.7 8.5-39.1zM809.5 501.9l-82.6 120.5c8.7 4.8 14.6 14 14.6 24.6V803.5c0 15.6-12.7 28.3-28.3 28.3H315.1c-15.6 0-28.3-12.7-28.3-28.3v-156.4c0-9.6 4.8-18 12.1-23.2-1.7-10.7 2.9-21.9 12.6-28.1 4.7-3 10-4.5 15.3-4.5 9.3 0 18.4 4.6 23.8 13l9.3 14.5h149.6c15.6 0 28.3 12.7 28.3 28.3s-12.7 28.3-28.3 28.3H343.4v99.9h341.5v-99.9H614.8c-1.9 0-3.7-0.2-5.5-0.6-13-2.6-22.8-14-22.8-27.7 0-15.6 12.7-28.3 28.3-28.3h46.1L763 470c8.9-13.1 13.7-28.3 13.7-44.1V26c0-18.2-14.8-33.1-33.1-33.1H284.8c-18.2 0-33.1 14.8-33.1 33.1V427.5c0 13.5 3.5 26.8 10.2 38.5 7.7 13.6 3 30.9-10.6 38.6-13.6 7.7-30.9 3-38.6-10.6-11.5-20.2-17.6-43.2-17.6-66.5v-401.6c0-49.4 40.2-89.6 89.6-89.6h458.6c49.4 0 89.6 40.2 89.6 89.6V425.8c0.2 27.3-8 53.6-23.4 76.1zM635.7 147.3c15.6 0 28.3 12.7 28.3 28.3V406.9c0 12.3-7.9 23.2-19.6 26.9-11.7 3.8-24.5-0.5-31.6-10.4L507.4 276.6 406.6 421.7c-7.1 10.2-19.9 14.5-31.7 10.9-11.8-3.7-19.8-14.6-19.8-27v-227.4c0-15.6 12.7-28.3 28.3-28.3s28.3 12.7 28.3 28.3V315.3l72.2-103.9c5.2-7.5 13.8-12.1 23-12.2h0.2c9.1 0 17.7 4.4 23 11.8l77.4 107.9v-143.3c-0.1-15.6 12.6-28.3 28.2-28.3z"  horiz-adv-x="1024" />

    
    <glyph glyph-name="sousuo" unicode="&#58994;" d="M694.3 465.8c0 65.6-22.3 126.1-59.7 174.3 29.5-83.1-28.6-245-95.7-308.9-74.6-71.1-223.2-120.8-303-91.7 48.1-36.9 108.1-58.9 173.2-58.9 157.3 0.1 285.2 128 285.2 285.2zM951.6 3L740.4 214.2c-11.7 11.7-30.6 11.7-42.3 0-11.7-11.7-11.7-30.6 0-42.3l211.2-211.2c5.8-5.8 13.5-8.8 21.1-8.8 7.7 0 15.3 2.9 21.1 8.8 11.8 11.7 11.8 30.6 0.1 42.3zM409.1 810.8c-38.5 0-76.3-6.3-112.3-18.7-15.6-5.4-23.9-22.4-18.5-38s22.4-23.9 38-18.5c29.8 10.3 61 15.5 92.9 15.5 91.6 0 173.2-43.5 225.4-110.9 37.4-48.2 59.7-108.7 59.7-174.3 0-157.2-127.9-285.2-285.2-285.2-65.1 0-125.2 22-173.2 58.9-68 52.1-111.9 134.1-111.9 226.2 0 55.1 15.7 108.5 45.4 154.5 9 13.9 5 32.4-8.9 41.3-13.9 9-32.4 5-41.3-8.9-36-55.7-55-120.3-55-186.9 0-190.2 154.7-344.9 344.9-344.9S754 275.6 754 465.8s-154.7 345-344.9 345zM204.2 675.2c6.9 0 13.8 2.4 19.4 7.2 5 4.2 10.1 8.4 15.4 12.3 13.2 9.9 16 28.6 6.1 41.8-9.9 13.3-28.6 16-41.8 6.1-6.4-4.8-12.6-9.8-18.6-14.9-12.5-10.7-14-29.6-3.2-42.1 5.9-6.8 14.3-10.4 22.7-10.4z"  horiz-adv-x="1024" />

    
    <glyph glyph-name="liwu" unicode="&#58995;" d="M173.3 10.8c6.9-7.8 16.6-12.2 27.2-12.2h625.1c10.6 0 20.3 4.3 27.2 12.2 6.7 7.5 9.7 17.1 8.4 27l-61.7 498.8c-2.8 22.6-22.4 39.6-45.7 39.6h-2.3l48.7-471.7c6.3-65.5 6.3-57.7-80.2-60.7L165.8 46l-1-8.1c-1.2-9.9 1.8-19.5 8.5-27.1zM923.6 45.6l-61.7 498.8c-6.7 54-53.2 94.8-108.1 94.8h-21.3C722.7 746.9 628.1 831.8 513 831.8s-209.7-84.9-219.5-192.6h-21.3c-55 0-101.5-40.7-108.1-94.8-2.1-17.2 10.1-32.9 27.4-35.1 17.2-2.1 32.9 10.1 35.1 27.4 2.8 22.6 22.4 39.6 45.7 39.6h481.6c23.3 0 42.9-17 45.7-39.6l61.7-498.8c1.2-9.9-1.8-19.5-8.4-27-6.9-7.8-16.6-12.2-27.2-12.2H200.5c-10.6 0-20.3 4.3-27.2 12.2-6.7 7.5-9.7 17.1-8.4 27l1 8.1 32 258.8c2.1 17.2-10.1 32.9-27.4 35.1-17.2 2.2-32.9-10.1-35.1-27.4l-33-266.9c-3.4-27.6 5.2-55.5 23.7-76.4 18.8-21.2 45.9-33.4 74.3-33.4h625.1c28.5 0 55.6 12.2 74.3 33.4 18.6 20.9 27.2 48.8 23.8 76.4zM513 768.9c80.2 0 146.5-56.7 156.1-129.7H356.9c9.6 73 75.9 129.7 156.1 129.7zM176.6 389.5c1.3-0.2 2.5-0.2 3.8-0.2 15.2 0 28.3 11.3 30.2 26.8l1.5 11.9c2.1 16.7-9.8 32-26.5 34-16.8 2.1-32-9.8-34-26.5l-1.5-11.9c-2.1-16.8 9.8-32.1 26.5-34.1zM513 179.8c-49.1 0-93.4 29.2-107.7 71.1-5.6 16.4-23.5 25.2-39.9 19.6-16.4-5.6-25.2-23.5-19.6-39.9 23.2-68 90.4-113.7 167.2-113.7 76.8 0 144 45.7 167.2 113.7 5.6 16.4-3.2 34.3-19.6 39.9-16.5 5.6-34.3-3.2-39.9-19.6-14.3-41.8-58.6-71.1-107.7-71.1zM334.139777 313.348662a58.3 58.3 0 1 1 44.620888 107.724353 58.3 58.3 0 1 1-44.620888-107.724353ZM669.6 367.2m-58.3 0a58.3 58.3 0 1 1 116.6 0 58.3 58.3 0 1 1-116.6 0Z"  horiz-adv-x="1024" />

    
    <glyph glyph-name="jiangpai" unicode="&#58996;" d="M550.5-3.9C679.5 8 774.8 122.6 763 251.6c-6.2 67-40.1 124.9-89.3 163.5 41-55.1 56.5-141.9 25.4-231.7-33-95.5-109.6-167.8-182.2-188 11-0.5 22.2-0.4 33.6 0.7zM612.8 229.4c0 27.9-13.8 52.7-34.9 67.9 13.7-21.1 17.2-52.1 6.6-84.1-10.8-32.7-33.5-57.9-58.1-67.5 0.9 0 1.7-0.1 2.6-0.1 46.2 0 83.8 37.6 83.8 83.8zM412.3 507.8c0.2-0.4 0.4-0.9 0.6-1.3l2.2-5c11.2 4.7 22.7 8.7 34.4 11.9l6.7 13.6-24.5 49.5-96.8 195.9h-53.4l130.8-264.6zM275.5 311.9c4-1.8 8.1-2.6 12.2-2.6 11.3 0 22.1 6.5 27 17.4 1.8 3.9 3.6 7.7 5.6 11.5 7.5 14.5 1.9 32.4-12.6 39.9s-32.4 1.9-39.9-12.6c-2.5-4.7-4.8-9.5-7-14.4-6.8-14.9-0.2-32.5 14.7-39.2zM520.9 524.1l122.7 248.3h103.6L650 575.9c-7.3-14.7-1.2-32.4 13.4-39.7 14.7-7.3 32.4-1.2 39.7 13.4l118.3 239.3c4.5 9.2 4 20.1-1.4 28.8s-14.9 14-25.2 14H625.2c-11.3 0-21.6-6.4-26.6-16.5L456.2 527l-6.7-13.6c-11.7-3.3-23.2-7.2-34.4-11.9l-2.2 5c-0.2 0.4-0.4 0.9-0.6 1.3L281.5 772.4h103.6l45.1-91.3c7.3-14.7 25-20.7 39.7-13.4 14.7 7.3 20.7 25 13.4 39.7L430.1 815.2c-5 10.1-15.3 16.5-26.6 16.5H233.8c-10.2 0-19.8-5.3-25.2-14-5.4-8.7-5.9-19.6-1.4-28.8l151.6-306.7 4-9.2c-9.7-6.6-19-13.9-27.9-21.7-12.3-10.8-13.5-29.5-2.7-41.8 10.8-12.3 29.5-13.5 41.8-2.7 37.5 32.9 83.6 52.7 133.4 57.3 62 5.7 120.6-13.4 166.2-49 49.2-38.5 83.2-96.4 89.3-163.5 11.9-129-83.5-243.6-212.5-255.5-11.3-1-22.5-1.2-33.6-0.7-114.8 5.8-211.1 95.5-221.9 213.1-0.9 9.8-1.2 19.6-0.9 29.3 0.5 16.4-12.3 30-28.7 30.6-16.3 0.4-30-12.3-30.6-28.7-0.4-12.1 0-24.5 1.1-36.6 14-152.5 142.6-267.3 292.8-267.3 9 0 18 0.4 27.1 1.2C717.4-48.1 836.8 95.4 822 257c-14.3 155.3-147.4 271.5-301.1 267.1zM672 229.4c0 78.9-64.2 143.1-143.1 143.1-78.9 0-143.1-64.2-143.1-143.1 0-78.9 64.2-143.1 143.1-143.1 79 0 143.1 64.2 143.1 143.1z m-226.8 0c0 46.2 37.6 83.8 83.8 83.8 18.3 0 35.1-5.9 48.9-15.9 21.1-15.2 34.9-40 34.9-67.9 0-46.2-37.6-83.8-83.8-83.8-0.9 0-1.7 0.1-2.6 0.1-45 1.4-81.2 38.3-81.2 83.7z"  horiz-adv-x="1024" />

    
    <glyph glyph-name="shezhi" unicode="&#58997;" d="M924.9 275.3c-16.9 11.3-30.3 24.6-39.7 39.5-18.3 29-24.3 63.5-16.9 96.9 7.4 33.4 27.2 61.8 55.9 79.8 11.2 7.1 16.2 20.9 12 33.5-19.4 58.2-50.4 111.9-89.6 155.5-8.9 9.8-23.3 12.4-34.9 6.1-38.3-20.4-85.2-19.5-122.8 2.8-37.1 21.1-61.1 61.6-62.8 105.7-0.5 13.2-10 24.4-22.9 27.1-59.4 12.4-119.6 12.4-179 0-12.9-2.7-22.3-13.8-22.9-26.9-0.8-19-5.7-37.1-14.5-54.9-19.4-37.3-56.3-62.4-98.7-67.3-15.8-1.8-27.2-16.1-25.4-31.9 1.8-15.8 16.2-27.2 31.9-25.3 61.4 7 115 43.6 143.5 98.3 9.1 18.2 15.2 36.5 18.4 55.3 38.1 5.8 76.5 5.8 114.6 0 9.1-54.6 41.9-103.1 89.1-130 47.6-28.1 105.9-32.7 157.2-13.5 23.4-29.4 42.9-63.3 57.2-99.6-31.6-26-53.4-61.6-62.4-102.4-10.6-48.3-2-98 24.4-140 10-15.8 22.7-30.1 37.9-42.9-7-17.5-15.2-34.8-25.1-53.1-9.2-16.3-19.9-32-32.1-47.1-38.3 14.2-80.1 15.4-119.9 3.1-47.5-14.7-86.1-46.9-109.1-91.1-9.1-18.2-15.2-36.5-18.4-55.3-38.1-5.8-76.4-5.8-114.5 0-6.6 40.5-26.4 77.4-57 105.7-36.3 33.5-83.5 50.9-132.9 49.2-19.2-0.9-38.7-4.9-57.4-11.7-23.5 29.4-43.1 63.4-57.4 99.9 31.6 25.9 53.7 61.3 62.9 101.7 11 48.1 2.5 97.7-23.9 139.7-10.4 16.4-23.4 31.4-38.4 44.1 6.7 17.5 15 34.3 25.1 51 0.2 0.3 0.3 0.5 0.5 0.8 11.9 21.1 27.4 42.8 45.9 64.4 10.3 12.1 8.9 30.2-3.1 40.6-12.1 10.3-30.3 8.9-40.6-3.1-20.8-24.3-38.4-48.9-52.1-73.2-16-26.5-28.1-53.5-37-82.4-3.7-12.2 1-25.4 11.5-32.4 15.9-10.6 29.7-24.6 39.7-40.5 18.2-28.9 24-63 16.4-96.2-7.6-33.1-27.6-61.4-56.5-79.5-11.2-7.1-16.2-20.9-12-33.5 19.4-58.2 50.4-111.9 89.6-155.5 8.7-9.6 22.7-12.3 34.3-6.5 17.6 8.8 36.8 13.9 55.1 14.8 34 1.2 66.4-10.8 91.4-33.9 25.1-23.2 39.6-54.8 40.8-88.9 0.5-13.2 9.9-24.4 22.9-27.1 29.7-6.2 59.6-9.3 89.5-9.3s59.8 3.1 89.5 9.3c12.9 2.7 22.3 13.8 22.9 26.9 0.8 19 5.7 37.1 14.5 54.9 15.6 30 42.2 52.1 74.9 62.3 32.7 10.1 67.3 7.1 97.5-8.6 11.6-6.1 25.9-3.5 34.7 6.3 20.5 22.8 38.3 47.4 53.1 73.5 15.1 28 27.1 54.7 36.4 81.7 4.2 12.2-0.4 25.9-11.3 33.2zM635.1 383.6c0 28.1-9.3 54-25.2 74.7 5.6-38.7-8.4-73.3-53-117.9-46.9-46.9-82.4-48.9-123.8-49.6 21.4-18.4 49.2-29.6 79.6-29.6 67.5 0 122.4 54.9 122.4 122.4zM435.4 484.8c5 0 10.1 1.3 14.7 4.1 1.4 0.9 2.9 1.7 4.4 2.5 14 7.6 19.2 25.1 11.6 39-7.6 14-25 19.2-39 11.6-2.1-1.2-4.3-2.4-6.4-3.6-13.7-8.1-18.1-25.8-10-39.5 5.3-9.1 14.9-14.1 24.7-14.1zM388.6 474.7c-14.4 6.8-31.5 0.8-38.4-13.6-11.6-24.3-17.5-50.4-17.5-77.5 0-99.2 80.7-180 180-180s180 80.7 180 180c0 93.6-70.2 170.6-163.2 179.2-15.8 1.5-29.9-10.2-31.3-26-1.5-15.8 10.2-29.9 26-31.3 35.3-3.3 65.8-21.1 85.8-47.2 15.8-20.7 25.2-46.6 25.2-74.7 0-67.5-54.9-122.4-122.4-122.4-30.4 0-58.2 11.2-79.6 29.6-26.2 22.5-42.8 55.7-42.8 92.8 0 18.4 4 36.2 11.9 52.7 6.7 14.3 0.6 31.5-13.7 38.4z"  horiz-adv-x="1024" />

    
    <glyph glyph-name="fenxiang" unicode="&#58998;" d="M806 608.3L568.6 181.9l17.3-99.3zM580.3 615.6c3.3 0 6.7 0.7 10 2l7.6 3.2c13.2 5.5 19.4 20.7 13.8 33.9-5.5 13.2-20.7 19.4-33.9 13.8l-7.6-3.2c-13.2-5.5-19.4-20.7-13.8-33.9 4.2-9.8 13.8-15.8 23.9-15.8zM923.4 796.3c-7.4 7.4-18.6 9.6-28.3 5.5L649 698.4c-13.2-5.5-19.4-20.7-13.8-33.9 5.5-13.2 20.7-19.4 33.9-13.8l187.8 78.9L806 608.3 585.9 82.6l-17.4 99.3-33 189 150.1 136.6c10.6 9.6 11.3 26 1.7 36.5-9.6 10.6-26 11.3-36.5 1.7L499.6 408.1l-287.5 50.6 305.5 128.4c13.2 5.5 19.4 20.7 13.8 33.9-5.5 13.2-20.7 19.4-33.9 13.8L111 472.4c-10.6-4.4-17-15.3-15.7-26.7 1.3-11.4 9.9-20.6 21.2-22.6l368.8-64.9 64.9-371.5c2-11.3 11.2-20 22.6-21.3 1-0.1 1.9-0.2 2.9-0.2 10.3 0 19.8 6.2 23.8 15.9L929 768c4 9.7 1.8 20.9-5.6 28.3z"  horiz-adv-x="1024" />

    
    <glyph glyph-name="tupian" unicode="&#59000;" d="M284.4 714.6c0.8-1.9 1.7-3.7 2.8-5.3 1.1-1.7 2.4-3.3 3.8-4.7 1.4-1.5 3-2.7 4.7-3.8 1.7-1.1 3.4-2.1 5.3-2.8 1.8-0.8 3.7-1.3 5.7-1.7 2-0.5 4-0.6 6-0.6s4 0.2 6 0.6c2 0.4 3.9 0.9 5.7 1.7 1.8 0.8 3.6 1.8 5.3 2.8 1.7 1.1 3.2 2.4 4.7 3.8 1.4 1.4 2.7 3 3.8 4.7 1.1 1.6 2 3.4 2.8 5.3 0.8 1.8 1.4 3.7 1.8 5.7 0.4 2 0.6 4 0.6 6 0 8-3.3 15.9-8.9 21.6-7.1 7.1-17.7 10.4-27.6 8.4-2-0.4-3.9-1-5.7-1.8-1.8-0.8-3.6-1.7-5.3-2.8-1.7-1.1-3.3-2.4-4.7-3.8-5.7-5.7-8.9-13.5-8.9-21.6 0-2.1 0.2-4 0.6-6 0.1-2 0.8-3.9 1.5-5.7zM125.4 98.3c0-15.8 12.8-28.6 28.6-28.6h530.1L483 277.5 125.4 112.4v-14.1zM870.6 69.6c15.8 0 28.6 12.8 28.6 28.6V232.6l-213.3-77 83.2-86h101.5zM870.6 756.8H402.4c-16.9 0-30.6-13.7-30.6-30.6s13.7-30.6 30.6-30.6h468.1c15.8 0 28.6-12.9 28.6-28.6v-251.3l-255.7-97.4c-15.8-6-23.7-23.7-17.7-39.5 4.6-12.2 16.3-19.7 28.6-19.7 3.6 0 7.3 0.6 10.9 2l233.9 89.1V98.1c0-15.8-12.8-28.6-28.6-28.6H769.1l-83.2 86-280.6 290.3c-9.7 10-24.9 12.2-37 5.4l-243-136.8V667c0 15.8 12.8 28.6 28.6 28.6h66.9c16.9 0 30.6 13.7 30.6 30.6s-13.7 30.6-30.6 30.6H154c-49.5 0-89.8-40.3-89.8-89.8v-568.7c0-49.5 40.3-89.8 89.8-89.8h716.6c49.5 0 89.8 40.3 89.8 89.8V667c0 49.5-40.3 89.8-89.8 89.8zM377.7 386.4L483 277.5l201.1-207.9H154c-15.8 0-28.6 12.8-28.6 28.6V244.3l252.3 142.1zM755.5 529.9c0 59.9-48.8 108.7-108.7 108.7-59.9 0-108.7-48.8-108.7-108.7 0-59.9 48.8-108.7 108.7-108.7 59.9 0 108.7 48.7 108.7 108.7z m-156.3 0c0 26.2 21.3 47.6 47.6 47.6 26.2 0 47.6-21.3 47.6-47.6 0-26.2-21.3-47.6-47.6-47.6-26.2 0-47.6 21.3-47.6 47.6z"  horiz-adv-x="1024" />

    
    <glyph glyph-name="wode1" unicode="&#59001;" d="M682.9 568c0 37.8-12.3 72.7-33.1 101 6.5-38.2-22.6-103.5-78.3-159.3-56.1-56.1-124.5-82.5-161.4-76.7 28.6-21.9 64.3-34.9 103-34.9 93.6 0 169.8 76.2 169.8 169.9zM513.1 339.2c126.2 0 228.8 102.6 228.8 228.8 0 117.9-88.3 215.7-205.5 227.6-16.2 1.6-30.7-10.1-32.3-26.3-1.6-16.2 10.1-30.7 26.3-32.3 49.4-5 91.9-30.7 119.3-68 20.9-28.3 33.1-63.3 33.1-101 0-93.7-76.2-169.9-169.9-169.9-38.7 0-74.4 13-103 34.9-40.6 31.1-66.9 80-66.9 135 0 31.4 8.6 62.1 24.9 88.7 8.5 13.9 4.2 32-9.7 40.5-13.9 8.5-32 4.1-40.5-9.7-22-35.9-33.6-77.2-33.6-119.5 0.2-126.2 102.8-228.8 229-228.8zM419.5 714.5c4.7 0 9.4 1.1 13.8 3.5 3.2 1.7 6.4 3.3 9.6 4.7 14.8 6.7 21.4 24.2 14.7 39-6.7 14.8-24.2 21.4-39 14.7-4.4-2-8.7-4.1-13-6.4-14.4-7.6-19.8-25.5-12.2-39.9 5.4-9.9 15.6-15.6 26.1-15.6zM958.2 10.6C887.9 188.2 709 307.4 513.1 307.4c-196.1 0-375-119.4-445.2-297.1-6-15.1 1.4-32.3 16.6-38.2 3.6-1.4 7.2-2.1 10.8-2.1 11.7 0 22.8 7.1 27.4 18.7C184 144.1 340.9 248.5 513.1 248.5c172 0 328.9-104.3 390.3-259.6 6-15.1 23.2-22.5 38.3-16.6 15.1 6.1 22.5 23.2 16.5 38.3z"  horiz-adv-x="1024" />

    
    <glyph glyph-name="shouye" unicode="&#59002;" d="M254.1 8.6h112v76.1c-0.8-0.3-1.6-0.5-2.4-0.5H260.9c-17.4 0-32.4 10.1-39.7 24.7v-55.3c0-24.4 15.1-45 32.9-45zM782 8.6c17.8 0 32.9 20.6 32.9 45v54.2c-7.5-14-22.1-23.6-39.1-23.6H673.1c-0.8 0-1.6 0.2-2.3 0.5v-76.1H782zM947.5 520.5L574.9 798.9c-33.9 25.8-81.5 26.2-116.1 0.9L429.7 778c-12.9-9.7-15.6-28-5.9-40.9 9.7-12.9 27.9-15.5 40.9-5.9l28.9 21.6c13.4 9.8 32.8 9.7 46.2-0.6l372.8-278.6c5.2-3.9 11.4-5.8 17.5-5.8 8.9 0 17.7 4 23.4 11.7 9.5 13.1 6.9 31.4-6 41zM377.1 673c6.1 0 12.2 1.9 17.5 5.8l5.3 3.9c12.9 9.7 15.6 28 5.9 40.9-9.7 12.9-28 15.5-40.9 5.9l-5.3-3.9c-12.9-9.7-15.6-28-5.9-40.9 5.8-7.6 14.5-11.7 23.4-11.7zM336.3 671.7c-9.7 12.9-28 15.5-40.9 5.9L75.7 513.2c-12.9-9.7-15.6-28-5.9-40.9 5.7-7.7 14.5-11.7 23.4-11.7 6.1 0 12.2 1.9 17.5 5.8l219.8 164.4c12.8 9.7 15.5 28 5.8 40.9zM844.1 449.7c-16.1 0-29.2-13.1-29.2-29.2v-367c0-24.4-15.1-45-32.9-45H670.8V284.4c0 16.1-13.1 29.2-29.2 29.2H395.3c-16.1 0-29.2-13.1-29.2-29.2V8.6h-112c-17.8 0-32.9 20.6-32.9 45V420.2c0 16.1-13.1 29.2-29.2 29.2s-29.2-13.1-29.2-29.2v-366.6c0-57 40.9-103.4 91.3-103.4h528c50.3 0 91.3 46.4 91.3 103.4V420.5c-0.1 16.1-13.2 29.2-29.3 29.2zM612.4 255.2v-246.7H424.5V255.2h187.9z"  horiz-adv-x="1024" />

    
    <glyph glyph-name="renyuan" unicode="&#59003;" d="M451.4 501.9c-16.6-36.4-46.2-72.3-89.2-79.8 8.5-2 17.3-3.2 26.4-3.2 62.7 0 113.8 51 113.8 113.8 0 39.4-20.2 74.2-50.7 94.7 31.1-34.6 18.7-83.7-0.3-125.5zM786.2 516.4c-8.1-17.8-21-35.4-38.6-45.5h0.2c37.6 0 68.1 30.6 68.1 68.1 0 19.9-8.7 37.9-22.4 50.3 11.2-21.8 3.6-49.1-7.3-72.9zM747.9 420.4c65.4 0 118.6 53.2 118.6 118.6s-53.2 118.6-118.6 118.6S629.2 604.4 629.2 539s53.3-118.6 118.7-118.6z m0 186.7c17.6 0 33.6-6.8 45.7-17.8C807.3 576.9 816 559 816 539c0-37.6-30.6-68.1-68.1-68.1h-0.2c-37.4 0.1-67.9 30.6-67.9 68.1 0 37.6 30.5 68.1 68.1 68.1zM388.6 354.2c-29.5 0-58.7-3.8-86.9-11.4-13.5-3.6-21.4-17.5-17.8-31 3.6-13.5 17.5-21.4 31-17.8 23.9 6.4 48.7 9.7 73.7 9.7 132.5 0 245.7-90 275.4-218.9 2.7-11.7 13.1-19.6 24.6-19.6 1.9 0 3.8 0.2 5.7 0.7 13.6 3.1 22.1 16.7 19 30.3-35.1 151.9-168.6 258-324.7 258zM218.6 307.6c-2.9-1.7-5.8-3.5-8.6-5.3-11.8-7.5-15.2-23.1-7.7-34.9 4.8-7.6 13-11.7 21.3-11.7 4.6 0 9.3 1.3 13.6 4 2.4 1.5 4.9 3 7.3 4.5 12 7.1 15.9 22.6 8.8 34.6-7.2 12-22.7 15.9-34.7 8.8zM140.5 243.3c-37.5-41.8-64-92.7-76.5-147.2-3.1-13.6 5.4-27.2 19-30.3 1.9-0.4 3.8-0.7 5.7-0.7 11.5 0 21.9 7.9 24.6 19.6 10.6 46.2 33.1 89.4 64.9 124.9 9.3 10.4 8.4 26.4-1.9 35.7-10.5 9.3-26.5 8.4-35.8-2zM959.7 221.7C936 324.5 845.8 396.3 740.2 396.3c-38.7 0-76.9-10-110.4-28.9-12.2-6.8-16.5-22.3-9.6-34.4 6.9-12.2 22.3-16.5 34.4-9.6 26 14.6 55.6 22.4 85.6 22.4 81.9 0 152-55.7 170.3-135.4 2.7-11.7 13.1-19.6 24.6-19.6 1.9 0 3.8 0.2 5.7 0.7 13.5 3 22 16.6 18.9 30.2zM552.9 532.7c0 90.6-73.7 164.3-164.3 164.3s-164.3-73.7-164.3-164.3S298 368.4 388.6 368.4s164.3 73.7 164.3 164.3z m-278.1 0c0 62.8 51.1 113.8 113.8 113.8 23.3 0 45-7.1 63.1-19.1 30.6-20.4 50.7-55.2 50.7-94.7 0-62.8-51.1-113.8-113.8-113.8-9.1 0-17.9 1.2-26.4 3.2-50.1 12-87.4 56.9-87.4 110.6z"  horiz-adv-x="1024" />

    
    <glyph glyph-name="xinxi" unicode="&#59004;" d="M490.6 18c15.7 0.1 57.1-0.1 109.5-0.3 74.1-0.4 173.8-0.8 247.2-0.6-38.8 45.8-63.2 122.9-7.7 266.5 13.8 35.6 14.6 77.2 13.8 109.5-0.4 14.8-1.7 29.3-3.8 43.5-26.2-103.5-63.1-125.7-95.1-218.9-30.1-87.7 6.8-168.8 6.8-168.8-54.7-4.7-183.5-13.4-278.3-30.8 1.7 0 3.3-0.1 5-0.1h2.6zM945.6 13.4l-3.2 2c-48.6 30.7-115.1 72.8-47.9 246.8 17.5 45.3 18.7 94.5 17.7 132.2-5.7 224.6-186 406.2-410.5 413.4-45 1.4-89.5-4.1-132.2-16.5-15.6-4.5-24.6-20.9-20.1-36.5 4.5-15.6 20.9-24.6 36.5-20.1 36.8 10.7 75.2 15.5 113.9 14.2 178.6-5.7 324.6-139.6 349.7-312.4 2.1-14.3 3.4-28.8 3.8-43.5 0.8-32.3 0-73.9-13.8-109.5-55.5-143.6-31.1-220.7 7.7-266.5-73.4-0.2-173.1 0.2-247.2 0.6-52.4 0.3-93.8 0.5-109.5 0.3h-2.6c-1.7 0-3.3 0.1-5 0.1-193.3 2.7-354.3 159.6-360.5 353.5-3.1 95.9 30.8 187.6 95.2 258.3 11 12 10.1 30.7-1.9 41.6-12 11-30.7 10.1-41.6-1.9C99.3 587.5 60 481 63.6 369.7 70.8 142.6 260.9-41 488-41h3c15.4 0.1 56.6-0.1 108.8-0.3 63.6-0.3 140.1-0.7 205.2-0.7 54.4 0 101 0.3 125.7 1 12.9 0.4 24.1 9.2 27.5 21.7 3.5 12.5-1.6 25.8-12.6 32.7zM274.1 686.4c5.5 0 11 1.5 15.9 4.7 3.2 2.1 6.5 4.1 9.7 6.1 13.9 8.4 18.4 26.5 10 40.5-8.4 13.9-26.5 18.4-40.5 10-3.8-2.3-7.5-4.6-11.2-7-13.7-8.8-17.6-27.1-8.8-40.8 5.7-8.8 15.2-13.5 24.9-13.5zM250.8 365.9c0-28.7 23.3-52 52-52s52 23.3 52 52-23.3 52-52 52-52-23.3-52-52zM544.7 365.9c0 28.7-23.3 52-52 52s-52-23.3-52-52 23.3-52 52-52 52 23.3 52 52zM740.4 365.9c0 28.7-23.3 52-52 52s-52-23.3-52-52 23.3-52 52-52 52 23.3 52 52z"  horiz-adv-x="1024" />

    
    <glyph glyph-name="wendang" unicode="&#59005;" d="M824.4 156.8h26.2c12.6 0 23.3 14.7 23.3 32.1v76.3l-3.3-3.1c-7.7-5.8-16.7-9.7-26.2-10.8-2.6-0.3-5.2-0.4-7.9-0.4h-79.6v-125.5h36c0 17.3 14.1 31.4 31.5 31.4zM216.5-0.9h445.4c17.7 0 32.2 14.4 32.2 32.2V123c-4.1-13.2-16.2-22.8-30.8-22.8H215.9c-15.4 0-28.3 10.8-31.5 25.3v-94.1c-0.1-17.9 14.4-32.3 32.1-32.3zM850.6 830.9H452.5c-38.2 0-71.4-27-82.4-67.3-4.6-16.7 5.2-34 22-38.6 16.7-4.6 34 5.2 38.6 22 3.4 12.4 12.4 21.1 21.8 21.1h398.1c12.6 0 23.3-14.7 23.3-32.1v-547.1c0-17.4-10.7-32.1-23.3-32.1h-26.2c-17.3 0-31.4-14.1-31.4-31.4 0-17.3 14.1-31.4 31.4-31.4h26.2c47.5 0 86.1 42.6 86.1 94.9V736c0 52.3-38.7 94.9-86.1 94.9zM756.9 461.2c0 0.6-0.1 1.1-0.2 1.7-0.1 1.5-0.2 2.9-0.4 4.4-0.2 0.9-0.5 1.8-0.8 2.7-0.3 1-0.6 2.1-1 3.1s-1 1.9-1.5 2.8c-0.5 0.9-0.9 1.8-1.4 2.6-0.8 1.2-1.7 2.2-2.6 3.2-0.4 0.5-0.7 1-1.2 1.5L550.3 683.5s-0.1 0-0.1 0.1l-0.1 0.1c-0.8 0.8-1.8 1.5-2.7 2.2-4 3.2-8.6 5.4-13.4 6.4-0.2 0-0.4 0-0.6 0.1-1.8 0.3-3.7 0.5-5.5 0.5H216.5c-52.4 0-95-42.6-95-95v-42.1c0-17.3 14.1-31.4 31.4-31.4s31.4 14.1 31.4 31.4v42.1c0 17.7 14.4 32.2 32.2 32.2h280v-109.9c0-27 0-90.4 78.6-90.4h119V31.2c0-17.7-14.4-32.2-32.2-32.2H216.5c-17.7 0-32.2 14.4-32.2 32.2V373.3c0 17.3-14.1 31.4-31.4 31.4s-31.4-14.1-31.4-31.4v-342.1c0-52.4 42.6-95 95-95h445.4c52.4 0 95 42.6 95 95v430z m-181.8 31.4c-8.1 0-11.8 1-13.1 1.5-0.8 1.9-2.7 8.1-2.7 26.1v64.7l91-92.3h-75.2zM152.9 429.6c17.3 0 31.4 14.1 31.4 31.4v4c0 17.3-14.1 31.4-31.4 31.4s-31.4-14.1-31.4-31.4v-4c0-17.3 14.1-31.4 31.4-31.4z"  horiz-adv-x="1024" />

    
    <glyph glyph-name="shouji" unicode="&#59006;" d="M401.4 777.2h4.5c15.2 0 27.4 12.3 27.4 27.4S421.1 832.1 406 832.1h-4.5c-15.2 0-27.4-12.3-27.4-27.4s12.2-27.5 27.3-27.5zM742.8 832.1H486c-15.2 0-27.4-12.3-27.4-27.4s12.3-27.4 27.4-27.4h256.8c13.6 0 24.6-11 24.6-24.6v-736.2c0-13.6-11-24.6-24.6-24.6H276.7c-13.6 0-24.6 11-24.6 24.6V752.6c0 13.6 11 24.6 24.6 24.6h45.8c15.2 0 27.4 12.3 27.4 27.4S337.6 832 322.5 832h-45.8c-43.8 0-79.5-35.7-79.5-79.5v-736.2c0-43.8 35.7-79.5 79.5-79.5h466.1c43.8 0 79.5 35.7 79.5 79.5V752.6c0 43.9-35.7 79.5-79.5 79.5zM483.2 98.3c7.5-5.3 16.7-8.5 26.6-8.5 25.5 0 46.2 20.7 46.2 46.2 0 9.8-3.1 18.8-8.2 26.3 0-21.6-8-36.1-15.8-44.3-8.6-8.8-24.1-20.1-48.8-19.7zM583.4 667.7h72.7v-302.8h-72.7zM408.7 136c0-55.7 45.3-101.1 101.1-101.1s101 45.4 101 101.1-45.3 101.1-101.1 101.1-101-45.4-101-101.1z m139 26.3c5.2-7.5 8.2-16.5 8.2-26.3 0-25.5-20.7-46.2-46.2-46.2-9.9 0-19 3.2-26.6 8.5-11.9 8.4-19.6 22.1-19.6 37.7 0 25.5 20.7 46.2 46.2 46.2 15.7 0 29.6-7.9 38-19.9zM711 337.5V695.2c0 15.2-12.3 27.4-27.4 27.4H335.9c-15.2 0-27.4-12.3-27.4-27.4v-357.6c0-15.2 12.3-27.4 27.4-27.4h347.6c15.2-0.1 27.5 12.2 27.5 27.3zM656.1 365H363.4V667.7h292.7V365z"  horiz-adv-x="1024" />

    
    <glyph glyph-name="shangchuan" unicode="&#59007;" d="M764.8 238c0 50.8-16.1 99.8-45.1 140.8-20.3-133.8-75.2-197.1-123.3-238.1-46.1-39.3-114.4-80.2-261.8-79.3 46-43.9 108.8-70.7 177-70.7 139.5-0.1 253.2 110.9 253.2 247.3zM260.3 361.8c4.5-2.9 9.5-4.3 14.4-4.3 8.7 0 17.3 4.3 22.4 12.2 15.2 23.6 34.3 44.4 56.7 61.8 11.6 9 13.7 25.8 4.7 37.4-9 11.6-25.8 13.7-37.4 4.7-27.1-21.1-50.2-46.3-68.7-74.9-8-12.4-4.4-28.9 7.9-36.9zM231.3 260.9c1.6-0.3 3.3-0.4 4.9-0.4 12.6 0 23.8 9 26.1 21.8 0.7 3.7 1.4 7.4 2.3 11 3.4 14.3-5.5 28.6-19.8 32-14.3 3.3-28.6-5.5-32-19.8-1-4.5-2-9-2.8-13.5-2.8-14.5 6.8-28.4 21.3-31.1zM713.5 464.1c-11.1 9.6-28 8.3-37.5-2.8-9.6-11.1-8.3-28 2.8-37.5 15.6-13.4 29.2-28.6 40.8-44.9 29.1-41 45.1-90 45.1-140.8 0-136.4-113.6-247.4-253.3-247.4-68.2 0-130.9 26.8-177 70.7-39.2 37.4-66.3 87.2-74 143.4-2 14.6-15.5 24.7-30 22.7-14.6-2-24.8-15.4-22.7-30 20.4-148.3 151-260.1 303.7-260.1 169 0 306.5 134.9 306.5 300.6 0.1 86.6-38 169-104.4 226.1zM677.3 607c5.2-5.2 12-7.8 18.8-7.8 6.8 0 13.6 2.6 18.8 7.8 10.4 10.4 10.4 27.3 0 37.7l-89.6 89.6c-10.4 10.4-27.3 10.4-37.6 0-10.4-10.4-10.4-27.3 0-37.7l89.6-89.6zM337.5 599.2c6.8 0 13.6 2.6 18.8 7.8l131.8 131.8v-514.9c0-14.7 11.9-26.6 26.6-26.6 14.7 0 26.6 11.9 26.6 26.6V795c4 9.6 2.1 21.1-5.8 29-10.4 10.4-27.3 10.4-37.6 0L318.7 644.7c-10.4-10.4-10.4-27.3 0-37.7 5.2-5.2 12-7.8 18.8-7.8z"  horiz-adv-x="1024" />

    
    <glyph glyph-name="wenjianjia" unicode="&#59008;" d="M162.4 30.7h699.8c22 0 39.9 17.9 39.9 39.9V428.5c0 4.2-1.6 8.1-4.6 11-3 2.9-7.1 4.8-11.1 4.5l-65.8-0.5V106c0-17.6-14.2-31.9-31.8-31.9l-666.4-3.2v-0.1c0-22.2 18-40.1 40-40.1zM568.8 500h-0.4c-15.9 0-28.9-12.8-29.1-28.7-0.2-16.1 12.6-29.3 28.7-29.5h2.8c15.9 0 28.9 12.8 29.1 28.7 0.2 16.1-12.6 29.3-28.7 29.5h-2.4zM938.5 480.8c-13.9 13.8-32.3 21.4-51.9 21.4h-0.6l-229.4-1.8c-16.1-0.1-29-13.3-28.9-29.3 0.1-16 13.1-28.9 29.1-28.9h0.2l163.5 1.3 65.8 0.5c4 0.3 8.1-1.6 11.1-4.5s4.6-6.8 4.6-11v-357.8c0-22-17.9-39.9-39.9-39.9H162.4c-22 0-39.9 17.9-39.9 39.9V577.2c0 12.4 10.1 22.5 22.5 22.5h159c6.6 0 12.5-3.9 14.9-9.5l45.8-113.5c9.3-21.9 30.5-36.2 54.5-35.8l65 0.4c16.1 0.1 29 13.2 28.9 29.3-0.1 16-13.1 28.9-29.1 28.9h-0.2l-65.3-0.6-45.8 113.5C361 640.1 334 657.9 304 657.9H144.9c-44.5 0-80.7-36.2-80.7-80.7v-506.6c0-54.1 44-98.2 98.2-98.2h699.8c54.1 0 98.2 44 98.2 98.2V428.5c0 19.8-7.8 38.4-21.9 52.3zM245.6 692.2c16.1 0 29.1 13 29.1 29.1v13h418c18.7 0 34-15.2 34-34v-136.9c0-16.1 13-29.1 29.1-29.1s29.1 13 29.1 29.1V700.3c0 50.8-41.4 92.2-92.2 92.2H245.6c-16.1 0-29.1-13-29.1-29.1v-42.1c0-16.1 13.1-29.1 29.1-29.1z"  horiz-adv-x="1024" />

    
    <glyph glyph-name="xuanze" unicode="&#59009;" d="M785.4 633.2c-13 7.1-29.3 2.3-36.4-10.8-7.1-13-2.3-29.3 10.8-36.4 90.6-49.2 146.9-143.8 146.9-246.8 0-154.8-125.9-280.7-280.7-280.7-17 0-34.1 1.5-50.6 4.6-14.6 2.6-28.6-7-31.2-21.6-2.7-14.6 7-28.6 21.6-31.2 19.7-3.6 40-5.4 60.3-5.4 184.4 0 334.4 150 334.4 334.4-0.1 122.6-67.2 235.3-175.1 293.9zM417.9 110.4c165.4 0 300 134.6 300 300 0 45-9.9 87.8-27.6 126.3-0.3-81.6-60.3-211.8-173.5-288.8-112.3-76.4-247.1-72.7-317.7-42.4 54.7-58.5 132.6-95.1 218.8-95.1zM771.6 410.4c0 182.2-136.5 333.5-317.6 351.9-14.8 1.5-27.9-9.2-29.4-24-1.5-14.7 9.2-27.9 24-29.4 108.8-11 198.6-78.7 241.7-172.2 17.7-38.4 27.6-81.2 27.6-126.3 0-165.4-134.6-300-300-300-86.2 0-164 36.6-218.8 95.1-50.3 53.7-81.2 125.7-81.2 204.9 0 105.4 56.4 204.3 147.1 258.2 12.7 7.6 16.9 24 9.4 36.8-7.6 12.7-24 16.9-36.8 9.4-107-63.6-173.4-180.2-173.4-304.4 0-195 158.7-353.7 353.7-353.7s353.7 158.7 353.7 353.7zM336.7 700.2c2.2 0 4.4 0.3 6.7 0.8 4.6 1.2 9.3 2.3 14.1 3.2 14.5 3 23.9 17.2 20.9 31.7s-17.2 23.8-31.7 20.9c-5.6-1.1-11.1-2.4-16.6-3.8-14.4-3.7-23-18.3-19.4-32.6 3.1-12.1 14-20.2 26-20.2zM241.7 443.7c-10.8-10.2-11.3-27.2-1.1-37.9L361 278.4c5-5.3 11.9-8.3 19.1-8.4h0.4c7.1 0 13.9 2.8 19 7.8l218.4 217.8c10.5 10.5 10.5 27.5 0 38s-27.5 10.5-38 0L381.1 335.3 279.7 442.7c-10.2 10.7-27.2 11.2-38 1z"  horiz-adv-x="1024" />

    
    <glyph glyph-name="tianqi" unicode="&#59010;" d="M236.6 103.3h550.5c65.9 0 119.5 53.6 119.5 119.5v4.4c0 42.4-22.8 82-59.5 103.3-9.1 5.3-14.1 15.5-12.7 25.9 0.7 5.5 1.1 10.1 1.1 14.3 0 47.7-31.8 88.2-75.4 101.3 26.4-25.5 51.1-77.5 41.8-125-2.3-11.8 1.6-24 9.3-33.2 43.8-41.8 41-95.3 17.4-139.3-11.7-21.8-34.4-35.5-59.1-35.5h-618c21.7-22 51.9-35.7 85.1-35.7zM222.6 489.6c4.8-3.7 10.4-5.6 16-5.6 7.7 0 15.3 3.4 20.4 9.9 1.5 1.9 3 3.7 4.5 5.5 9.3 10.9 8 27.3-2.9 36.6s-27.3 8-36.6-2.9c-2-2.3-3.9-4.7-5.8-7.1-8.8-11.2-6.9-27.5 4.4-36.4zM887.5 366.2c0.1 1.5 0.1 3 0.1 4.5 0 87-70.7 157.7-157.7 157.7-48.9 0-93-22.8-122-58.3-33.6 83.7-115.5 142.9-211 142.9-33 0-64.9-6.9-94.7-20.6-13-6-18.8-21.4-12.8-34.4s21.4-18.8 34.4-12.8c23 10.5 47.5 15.9 73 15.9 96.6 0 175.2-78.6 175.2-175.2 0-3.8-0.2-7.7-0.4-11.4-0.5-7.2 2.4-14.2 7.3-19.4 4.9-5.2 12.1-8.2 19.2-8.2 14.2 0 25.8 11.4 26 25.6 0.9 57.4 48.3 104.2 105.7 104.2 10.6 0 20.8-1.6 30.4-4.5 43.5-13.1 75.4-53.5 75.4-101.3 0-4.2-0.3-8.7-1.1-14.3-1.4-10.4 3.6-20.6 12.7-25.9 36.7-21.4 59.5-61 59.5-103.3v-4.4c0-65.9-53.6-119.5-119.5-119.5H236.6c-33.3 0-63.4 13.7-85.1 35.7-21.3 21.6-34.5 51.2-34.5 83.8v4.4c0 53.1 35.6 100.4 86.7 114.9 12 3.4 19.9 14.9 18.7 27.4-0.5 5.7-0.8 11.1-0.8 16.3 0 17 2.4 33.8 7.2 50 4.1 13.8-3.8 28.2-17.5 32.3-13.8 4.1-28.2-3.8-32.3-17.5-6.2-20.9-9.4-42.7-9.4-64.7v-0.7C107.1 358.9 65 296.6 65 227.5v-4.4c0-94.6 76.9-171.5 171.5-171.5H787c94.6 0 171.5 76.9 171.5 171.5v4.4c0.1 54.9-26.8 106.7-71 138.7zM510.4 614c11.2-8.9 27.6-7.1 36.5 4.1 19.5 24.5 48.7 38.6 80 38.6 48.4 0 90.5-34.3 100.2-81.6 2.5-12.3 13.3-20.8 25.4-20.8 1.7 0 3.5 0.2 5.2 0.5 14.1 2.9 23.1 16.6 20.2 30.7-14.6 71.3-78.1 123.1-151 123.1-47.2 0-91.2-21.2-120.6-58.1-8.9-11.2-7.1-27.5 4.1-36.5z"  horiz-adv-x="1024" />

    


  </font>
</defs>
</svg>
